<?xml version="1.0" encoding="UTF-8"?>
<svg id="Layer_1" xmlns="http://www.w3.org/2000/svg" version="1.1" viewBox="0 0 116 116">
  <!-- Generator: Adobe Illustrator 29.3.1, SVG Export Plug-In . SVG Version: 2.1.0 Build 151)  -->
  <defs>
    <style>
      .st0 {
        fill: #d98b9a;
      }
    </style>
  </defs>
  <circle class="st0" cx="57.7" cy="57.9" r="53.2"/>
  <g>
    <g>
      <path d="M64,94.7h-12.5c-.8,0-1.5-.7-1.5-1.5s.7-1.5,1.5-1.5h12.5c.8,0,1.5.7,1.5,1.5s-.7,1.5-1.5,1.5Z"/>
      <path d="M66,89.9h-16.6c-.8,0-1.5-.7-1.5-1.5s.7-1.5,1.5-1.5h16.6c.8,0,1.5.7,1.5,1.5s-.7,1.5-1.5,1.5Z"/>
      <path d="M58.8,99.7h-2c-1.2,0-2.2-1-2.2-2.2v-.3c0-.2.2-.4.4-.4h5.6c.2,0,.4.2.4.4v.3c0,1.2-1,2.2-2.2,2.2Z"/>
    </g>
    <path d="M57.7,23.2c-.8,0-1.5-.7-1.5-1.5v-6.3c0-.8.7-1.5,1.5-1.5s1.5.7,1.5,1.5v6.3c0,.8-.7,1.5-1.5,1.5Z"/>
    <path d="M94.1,53.2h-6.3c-.8,0-1.5-.7-1.5-1.5s.7-1.5,1.5-1.5h6.3c.8,0,1.5.7,1.5,1.5s-.7,1.5-1.5,1.5Z"/>
    <path d="M27.7,53.2h-6.3c-.8,0-1.5-.7-1.5-1.5s.7-1.5,1.5-1.5h6.3c.8,0,1.5.7,1.5,1.5s-.7,1.5-1.5,1.5Z"/>
    <path d="M83.4,78.9c-.4,0-.8-.1-1.1-.4l-4.4-4.4c-.6-.6-.6-1.5,0-2.1s1.5-.6,2.1,0l4.4,4.4c.6.6.6,1.5,0,2.1s-.7.4-1.1.4Z"/>
    <path d="M36.5,32c-.4,0-.8-.1-1.1-.4l-4.4-4.4c-.6-.6-.6-1.5,0-2.1.6-.6,1.5-.6,2.1,0l4.4,4.4c.6.6.6,1.5,0,2.1-.3.3-.7.4-1.1.4Z"/>
    <path d="M32,78.9c-.4,0-.8-.1-1.1-.4-.6-.6-.6-1.5,0-2.1l4.4-4.4c.6-.6,1.5-.6,2.1,0,.6.6.6,1.5,0,2.1l-4.4,4.4c-.3.3-.7.4-1.1.4Z"/>
    <path d="M79,32c-.4,0-.8-.1-1.1-.4-.6-.6-.6-1.5,0-2.1l4.4-4.4c.6-.6,1.5-.6,2.1,0,.6.6.6,1.5,0,2.1l-4.4,4.4c-.3.3-.7.4-1.1.4Z"/>
    <path d="M66.3,84.7h-17.1c-.4,0-.8-.2-1.1-.4-.3-.3-.4-.7-.4-1.1v-3.8c0-2.1-2.6-5.3-4.6-7.7-.4-.5-.9-1-1.2-1.5-1.6-2-2.9-3.9-4.1-5.8-1.2-1.9-2-3.9-2.6-6-.6-2.1-.9-4.3-.9-6.5,0-13.1,10.5-23.7,23.5-23.7s23.5,10.6,23.5,23.7-.3,4.4-.9,6.5c-.6,2.1-1.5,4.1-2.6,6-1.2,1.9-2.5,3.9-4.1,5.8-.4.5-.8,1-1.2,1.5-1.9,2.3-4.6,5.6-4.6,7.7v3.8c0,.4-.2.8-.4,1.1-.3.3-.7.4-1.1.4ZM50.7,81.7h14.2v-2.4c0-3.2,2.8-6.6,5.2-9.6.4-.5.8-1,1.2-1.5,1.5-1.9,2.8-3.7,3.9-5.6,1-1.6,1.8-3.4,2.3-5.2.5-1.8.8-3.8.8-5.7,0-11.4-9.2-20.7-20.5-20.7s-20.5,9.3-20.5,20.7.3,3.9.8,5.7c.5,1.8,1.3,3.6,2.3,5.2,1.1,1.8,2.4,3.7,3.9,5.6.4.5.8,1,1.2,1.5,2.5,3,5.2,6.4,5.2,9.6v2.4Z"/>
    <path d="M73.2,56.2c0,0-.1,0-.2,0-.8,0-1.4-.8-1.3-1.6,1-8.6-4.6-14.7-8.7-15.7-.8-.2-1.3-1-1.1-1.8.2-.8,1-1.3,1.8-1.1,5.4,1.2,12.2,8.5,11,18.9,0,.8-.7,1.3-1.5,1.3Z"/>
  </g>
</svg>