<?xml version="1.0" encoding="UTF-8"?>
<svg id="Layer_1" xmlns="http://www.w3.org/2000/svg" version="1.1" viewBox="0 0 116 116">
  <!-- Generator: Adobe Illustrator 29.3.1, SVG Export Plug-In . SVG Version: 2.1.0 Build 151)  -->
  <defs>
    <style>
      .st0 {
        fill: #4f7851;
      }
    </style>
  </defs>
  <circle class="st0" cx="58.1" cy="58.1" r="53.2"/>
  <g>
    <path d="M24.1,70c0,0,0,.2,0,.3,0,.3,0,.5.1.8,0,.1,0,.2,0,.3,0,.2.1.5.2.7,0,.1,0,.3.1.4,0,.2.2.4.2.6,0,.1.1.3.2.4,0,.2.2.4.3.5,0,.1.2.3.2.4.1.2.2.3.3.5,0,.1.2.2.3.3.2.2.3.4.5.6,0,0,.1.1.2.2.3.3.5.5.8.7-.2.8-.3,1.6-.3,2.4,0,3.1,1.4,5.9,3.7,7.7,1.7,1.4,4,2.3,6.4,2.3s.2,0,.3,0c0,0,.2,0,.3,0,1.7,4.1,5.7,6.9,10.3,6.9s8-2.5,9.9-6.1c1.8,3.6,5.6,6.1,9.9,6.1s8.6-2.7,10.3-6.9c0,0,.2,0,.3,0,0,0,.2,0,.3,0,2.4,0,4.7-.9,6.4-2.3,2.2-1.8,3.7-4.6,3.7-7.7s0-1.6-.3-2.4c.3-.2.6-.5.8-.7,0,0,.1-.1.2-.2.2-.2.3-.4.5-.6,0-.1.2-.2.3-.3.1-.2.2-.3.3-.5,0-.1.2-.3.2-.4.1-.2.2-.3.3-.5,0-.1.1-.3.2-.4,0-.2.2-.4.2-.6,0-.1,0-.3.1-.4,0-.2.1-.4.2-.7,0-.1,0-.2,0-.3,0-.3,0-.5.1-.8,0,0,0-.2,0-.3,0-.4,0-.7,0-1.1h0s0,0,0,0c0-2.2-.7-4.2-1.9-5.9,0,0,0,0,0,0,.3-.4.6-.8.8-1.3,0,0,0,0,0,0,.2-.4.4-.9.6-1.4,0,0,0,0,0,0,.1-.5.3-.9.3-1.4,0,0,0-.2,0-.3,0-.5.1-.9.1-1.4s0-.8,0-1.1c0-.2,0-.3,0-.5,0-.2,0-.4-.1-.6,0-.2-.1-.4-.2-.6,0-.1,0-.2-.1-.3-.7-2.1-2-3.9-3.9-5.1,0,0,0,0,0,0,0,0,0,0,0,0,.7-1.4,1.1-3,1.1-4.6s0-.3,0-.5c0-.2,0-.4,0-.7,0-.2,0-.4,0-.7,0-.2,0-.3-.1-.5,0-.2-.1-.5-.2-.7,0,0,0,0,0,0-.2-.6-.4-1.1-.7-1.7,0,0,0,0,0,0-.6-1.1-1.4-2.1-2.3-2.9,0,0-.1-.1-.2-.2-.2-.2-.4-.3-.6-.5-.3-.2-.6-.4-.9-.5,0,0,0,0,0,0,0-.1,0-.2,0-.3s0-.1,0-.2c0-.4,0-.8-.1-1.2,0-.1,0-.3,0-.4,0-.4-.2-.9-.3-1.3,0-.1,0-.2-.1-.4-.2-.4-.3-.8-.6-1.2,0,0,0-.1-.1-.2-.2-.4-.5-.7-.7-1.1,0,0,0-.1-.1-.2-.3-.4-.6-.7-1-1,0,0-.1-.1-.2-.2-.4-.3-.7-.6-1.1-.8,0,0-.1,0-.2-.1-.9-.5-1.9-1-2.9-1.2-1.2-4.1-5-7.1-9.4-7.1s-6.8,2-8.5,5c-1.7-3-4.8-5-8.5-5s-8.2,2.9-9.4,7.1c-1,.2-2,.6-2.9,1.2,0,0-.1,0-.2.1-.4.3-.8.5-1.1.8,0,0-.1.1-.2.2-.3.3-.7.6-1,1,0,0,0,.1-.1.2-.3.3-.5.7-.7,1.1,0,0,0,.1-.1.2-.2.4-.4.8-.6,1.2,0,.1,0,.2-.1.4-.1.4-.3.8-.3,1.3,0,.1,0,.3,0,.4,0,.4,0,.8-.1,1.2,0,0,0,.1,0,.2s0,.2,0,.3c0,0,0,0,0,0-.3.2-.6.3-.9.5-.2.1-.4.3-.6.5,0,0-.1.1-.2.2-1,.8-1.8,1.8-2.3,2.9,0,0,0,0,0,0-.3.5-.5,1.1-.7,1.7,0,0,0,0,0,0,0,.2-.1.5-.2.7,0,.2,0,.3-.1.5,0,.2,0,.4,0,.7,0,.2,0,.4,0,.7,0,.2,0,.3,0,.5,0,1.6.4,3.2,1.1,4.6,0,0,0,0,0,0,0,0,0,0,0,0-1.8,1.2-3.2,3-3.9,5.1,0,.1,0,.2-.1.3,0,.2-.1.4-.2.6,0,.2,0,.4-.1.6,0,.2,0,.3,0,.5,0,.4,0,.8,0,1.1s0,1,.1,1.4c0,0,0,.2,0,.3,0,.5.2.9.3,1.4,0,0,0,0,0,0,.2.5.4.9.6,1.4,0,0,0,0,0,0,.2.4.5.9.8,1.3,0,0,0,0,0,0-1.3,1.7-1.9,3.8-1.9,5.9s0,0,0,0h0c0,.4,0,.7,0,1.1ZM66.8,20.7c3,0,5.5,1.8,6.7,4.4-1.7.1-3.4.6-4.9,1.6-.6.4-.7,1.1-.3,1.7.4.6,1.1.7,1.7.3,1.2-.8,2.6-1.2,4.1-1.2s.8,0,1.1.1c.3,0,.5.1.8.2.2,0,.4.1.6.2.2,0,.4.2.6.3.2.1.4.2.6.3.2.1.3.2.5.3.2.2.4.3.6.5.1.1.3.2.4.4.2.2.4.4.5.7,0,.1.2.3.3.4.2.3.3.5.5.8,0,.1.1.2.2.4.1.4.3.7.4,1.1,0,0,0,.1,0,.2,0,.3,0,.6,0,.9-.7-.2-1.4-.2-2.2-.2-5.5,0-10,4.5-10,10s.5,1.2,1.2,1.2,1.2-.5,1.2-1.2c0-4.2,3.4-7.6,7.6-7.6s2,.2,2.9.6c0,0,0,0,0,0,.4.2.8.4,1.2.6,0,0,0,0,.1,0,.4.3.7.5,1.1.9,0,0,0,0,0,0,.7.7,1.2,1.5,1.6,2.4,0,0,0,0,0,0,.2.4.3.8.4,1.3,0,0,0,.1,0,.2,0,.5.1,1,.1,1.5s0,0,0,0c0,1.2-.3,2.4-.9,3.5-1-.4-2.1-.6-3.3-.6s-1.2.5-1.2,1.2.5,1.2,1.2,1.2c2.1,0,4,.8,5.4,2.2,0,0,0,0,0,0,1,1,1.7,2.3,2,3.7,0,0,0,.2,0,.3,0,.5.1.9.1,1.4s0,1-.1,1.4c0,.2-.1.4-.2.7,0,.2-.1.5-.2.7-.1.3-.2.5-.4.7,0,.2-.2.4-.3.5-.1.2-.3.4-.5.7-1.4,1.7-3.5,2.9-5.9,2.9s-1.2.5-1.2,1.2.5,1.2,1.2,1.2c2.4,0,4.6-.9,6.4-2.3.8,1.2,1.2,2.6,1.2,4.1s0,0,0,0c0,.5,0,.9-.1,1.3,0,0,0,.2,0,.3,0,.4-.2.8-.4,1.2,0,0,0,.2-.1.2-.2.4-.3.7-.6,1,0,0,0,.1,0,.2-.2.3-.5.7-.8,1,0,0-.2.2-.2.2-.3.2-.5.5-.8.7,0,0-.1,0-.2.1,0,0,0,0,0,0-1.2.8-2.7,1.3-4.2,1.3s-1.2.5-1.2,1.2.5,1.2,1.2,1.2c1.5,0,2.8-.3,4.1-.9,0,.3,0,.6,0,1,0,0,0,0,0,0,0,2.6-1.3,4.9-3.3,6.3-1.2.8-2.7,1.3-4.2,1.3s0,0-.1,0c-4.1,0-7.5-3.4-7.5-7.6s-.5-1.2-1.2-1.2-1.2.5-1.2,1.2c0,4.5,2.9,8.3,7,9.6-1.4,3-4.4,4.9-7.8,4.9s-8.7-3.9-8.7-8.7v-49.1s0,0,0-.1c.2-.7.7-1.3,1.4-1.7.7-.4,1.5-.4,2.2-.2.6.2,1.3-.2,1.5-.8.2-.6-.2-1.3-.8-1.5-1.4-.4-2.8-.3-4.1.4-.1,0-.2.1-.3.2v-3.9c0-4,3.3-7.3,7.3-7.3ZM29.9,44.1s0,0,0,0c0-.5,0-1,.1-1.5,0,0,0-.1,0-.2,0-.4.2-.9.4-1.3,0,0,0,0,0,0,.4-.9.9-1.7,1.6-2.4,0,0,0,0,0,0,.3-.3.7-.6,1.1-.9,0,0,0,0,.1,0,.4-.2.8-.5,1.2-.6,0,0,0,0,0,0,.9-.4,1.9-.6,2.9-.6,4.2,0,7.6,3.4,7.6,7.6s.5,1.2,1.2,1.2,1.2-.5,1.2-1.2c0-5.5-4.5-10-10-10s-1.5,0-2.2.2c0-.3,0-.6,0-.9,0,0,0-.1,0-.2,0-.4.2-.8.4-1.1,0-.1.1-.2.2-.4.1-.3.3-.6.5-.8,0-.1.2-.3.3-.4.2-.2.3-.4.5-.7.1-.1.3-.2.4-.4.2-.2.4-.3.6-.5.2-.1.3-.2.5-.3.2-.1.4-.2.6-.3.2,0,.4-.2.6-.3.2,0,.4-.1.6-.2.3,0,.5-.1.8-.2.4,0,.8-.1,1.1-.1,1.5,0,2.9.4,4.1,1.2.6.4,1.3.2,1.7-.3.4-.6.2-1.3-.3-1.7-1.4-1-3.1-1.5-4.9-1.6,1.1-2.6,3.7-4.4,6.7-4.4s7.3,3.3,7.3,7.3v8.1c-1.3-.8-2.8-1.1-4.4-.6-.6.2-1,.9-.8,1.5.2.6.9,1,1.5.8,1.5-.5,3.1.4,3.6,1.9,0,0,0,0,0,.1v21.4c-1.3-.8-2.8-1.1-4.4-.6-.6.2-1,.9-.8,1.5.2.6.9,1,1.5.8,1.5-.5,3.1.4,3.6,1.9,0,0,0,0,0,.1v19.8c0,4.8-3.9,8.7-8.7,8.7s-6.4-1.9-7.8-4.9c4-1.3,7-5.1,7-9.6s-.5-1.2-1.2-1.2-1.2.5-1.2,1.2c0,3.7-2.7,6.8-6.2,7.4,0,0,0,0,0,0,0,0,0,0-.1,0-.4,0-.8.1-1.2.1,0,0,0,0-.1,0-1.6,0-3-.5-4.2-1.3-2-1.4-3.3-3.7-3.3-6.3s0,0,0,0c0-.3,0-.7,0-1,1.2.6,2.6.9,4.1.9s1.2-.5,1.2-1.2-.5-1.2-1.2-1.2c-1.6,0-3-.5-4.2-1.3,0,0,0,0,0,0,0,0-.1,0-.2-.1-.3-.2-.6-.4-.8-.7,0,0-.2-.2-.2-.2-.3-.3-.6-.6-.8-1,0,0,0-.1,0-.2-.2-.3-.4-.7-.6-1,0,0,0-.2-.1-.2-.2-.4-.3-.8-.4-1.2,0,0,0-.2,0-.3,0-.4-.1-.9-.1-1.3,0,0,0,0,0,0,0-1.5.4-2.9,1.2-4.1,1.7,1.4,4,2.3,6.4,2.3s1.2-.5,1.2-1.2-.5-1.2-1.2-1.2c-2.4,0-4.5-1.1-5.9-2.9-.2-.2-.3-.4-.5-.7-.1-.2-.2-.3-.3-.5-.1-.2-.3-.5-.4-.7,0-.2-.1-.5-.2-.7,0-.2-.1-.4-.2-.7,0-.5-.1-1-.1-1.4s0-.9.1-1.4c0,0,0-.2,0-.3.3-1.4,1-2.7,2-3.7,0,0,0,0,0,0,1.4-1.4,3.3-2.2,5.4-2.2s1.2-.5,1.2-1.2-.5-1.2-1.2-1.2c-1.2,0-2.3.2-3.3.6-.6-1.1-.9-2.2-.9-3.5Z"/>
    <path d="M38.9,51.9c2.8.7,4.5,3.5,3.8,6.3-.2.7.2,1.3.9,1.5,0,0,.2,0,.3,0,.6,0,1.1-.4,1.2-.9.2-.9.2-1.8.1-2.7,3.5-.5,6.3-3.3,6.6-7,0-.7-.5-1.3-1.1-1.3-.7,0-1.3.5-1.3,1.1-.2,2.6-2.3,4.6-4.9,4.8-1-2-2.8-3.6-5.1-4.1-.7-.2-1.3.2-1.5.9-.2.7.2,1.3.9,1.5Z"/>
    <path d="M49.4,69.4c.4-.8.7-1.6.8-2.5,0-.7-.4-1.3-1.1-1.4-.7,0-1.3.4-1.4,1.1-.2,1.4-.8,2.6-1.9,3.5s-2.4,1.3-3.8,1.1c-.7,0-1.3.4-1.4,1.1,0,.7.4,1.3,1.1,1.4.3,0,.6,0,.9,0,1.7,0,3.4-.6,4.7-1.7.2-.2.4-.4.6-.5,1,.4,1.9,1.2,2.5,2.2.7,1.2.9,2.6.5,3.9-.2.7.2,1.3.8,1.5.1,0,.2,0,.3,0,.5,0,1-.4,1.2-.9.5-2,.3-4-.7-5.8-.7-1.3-1.8-2.3-3.1-3Z"/>
    <path d="M71.3,56c-.1.9,0,1.8.1,2.7.1.6.6.9,1.2.9s.2,0,.3,0c.7-.2,1.1-.8.9-1.5-.7-2.8,1.1-5.6,3.8-6.3.7-.2,1.1-.8.9-1.5s-.8-1.1-1.5-.9c-2.3.6-4.1,2.1-5.1,4.1-2.6-.1-4.7-2.2-4.9-4.8,0-.7-.6-1.2-1.3-1.1-.7,0-1.2.6-1.1,1.3.3,3.7,3.1,6.5,6.6,7Z"/>
    <path d="M74.7,71.2c-1.4.2-2.7-.2-3.8-1.1-1.1-.9-1.8-2.1-1.9-3.5,0-.7-.7-1.1-1.4-1.1-.7,0-1.2.7-1.1,1.4.1.9.4,1.8.8,2.5-1.3.7-2.4,1.7-3.1,3-1,1.8-1.3,3.8-.7,5.8.2.5.6.9,1.2.9s.2,0,.3,0c.7-.2,1-.9.8-1.5-.4-1.3-.2-2.7.5-3.9.6-1,1.4-1.8,2.5-2.2.2.2.4.4.6.5,1.4,1.1,3,1.7,4.7,1.7s.6,0,.9,0c.7,0,1.2-.7,1.1-1.4,0-.7-.7-1.1-1.4-1.1Z"/>
  </g>
</svg>