<?xml version="1.0" encoding="UTF-8"?>
<svg id="Layer_1" xmlns="http://www.w3.org/2000/svg" version="1.1" viewBox="0 0 116 116">
  <!-- Generator: Adobe Illustrator 29.3.1, SVG Export Plug-In . SVG Version: 2.1.0 Build 151)  -->
  <defs>
    <style>
      .st0 {
        fill: #a9734e;
      }

      .st1 {
        fill: #0f0f0f;
      }
    </style>
  </defs>
  <circle class="st0" cx="58" cy="58" r="53.2"/>
  <path class="st1" d="M91.2,24.1l-1.8,1.7-4.7-8.6-6.7,6.1.3.5c2.8,4.8,4.1,7,4.8,8.1,0,0,0,0,0,0l-3.9,3.8c-6.2-6-14.2-9.2-22.8-9.2-18.1,0-32.8,14.7-32.8,32.8s14.7,32.8,32.8,32.8,32.8-14.7,32.8-32.8-1.6-11.7-4.6-16.7l-1.4.8c2.9,4.8,4.4,10.3,4.4,15.9,0,17.2-14,31.2-31.2,31.2s-31.2-14-31.2-31.2,14-31.2,31.2-31.2,15.8,3.1,21.7,8.8l-7.9,7.7c-3.8-3.5-8.6-5.5-13.8-5.5-11.1,0-20.2,9.1-20.2,20.2s9.1,20.2,20.2,20.2,20.2-9.1,20.2-20.2-1-7.2-2.8-10.3l-1.4.8c1.7,2.9,2.6,6.2,2.6,9.5,0,10.3-8.4,18.6-18.6,18.6s-18.6-8.4-18.6-18.6,8.4-18.6,18.6-18.6,9.2,1.8,12.7,5l-5.5,5.4c-2-1.8-4.6-2.7-7.2-2.7-6.1,0-11,4.9-11,11s4.9,11,11,11,11-4.9,11-11-.5-3.9-1.5-5.6l-1.4.8c.9,1.4,1.3,3.1,1.3,4.8,0,5.2-4.2,9.4-9.4,9.4s-9.4-4.2-9.4-9.4,4.2-9.4,9.4-9.4,4.4.8,6.1,2.3l-6.7,6.6,1.1,1.1,27.3-26.9c1.1.8,3.2,2.3,7.3,5.2l.5.4,6.7-6.2-8.3-5.4,1.8-1.8-1.1-1.1ZM84.4,19.7l3.9,7.2-3.9,3.9c-.9-1.4-2.9-4.8-4.3-7.2l4.3-3.9ZM96.3,32.6l-4.3,4c-2.2-1.5-5.1-3.6-6.6-4.6l3.9-3.8,6.9,4.5Z"/>
</svg>