<?xml version="1.0" encoding="UTF-8"?>
<svg id="Layer_5" data-name="Layer 5" xmlns="http://www.w3.org/2000/svg" viewBox="0 0 116 116">
  <circle cx="58" cy="57.9" r="53.24" fill="#e7a299"/>
  <g>
    <path d="M58,31.4c17.7,0,32.11,14.4,32.11,32.11s-14.4,32.11-32.11,32.11-32.11-14.4-32.11-32.11,14.4-32.11,32.11-32.11M58,28.9c-19.11,0-34.61,15.49-34.61,34.61s15.49,34.61,34.61,34.61,34.61-15.49,34.61-34.61-15.49-34.61-34.61-34.61h0Z"/>
    <line x1="52.58" y1="31.26" x2="52.58" y2="23.19" fill="none" stroke="#000" stroke-miterlimit="10" stroke-width="2.5"/>
    <line x1="63.97" y1="30.73" x2="63.97" y2="23.19" fill="none" stroke="#000" stroke-miterlimit="10" stroke-width="2.5"/>
    <circle cx="58.05" cy="63.51" r="6.77" fill="none" stroke="#000" stroke-miterlimit="10" stroke-width="2.5"/>
    <line x1="58" y1="42.04" x2="58" y2="56.74" fill="none" stroke="#000" stroke-linecap="round" stroke-miterlimit="10" stroke-width="2.5"/>
    <line x1="78.69" y1="38.38" x2="85.18" y2="31.88" fill="none" stroke="#000" stroke-miterlimit="10" stroke-width="2.5"/>
    <line x1="82.36" y1="27.82" x2="89.24" y2="34.7" fill="none" stroke="#000" stroke-linecap="round" stroke-miterlimit="10" stroke-width="2.5"/>
    <rect x="48.3" y="15.06" width="19.67" height="8.12" fill="none" stroke="#000" stroke-linecap="round" stroke-linejoin="round" stroke-width="2.5"/>
  </g>
</svg>