<?xml version="1.0" encoding="UTF-8"?>
<svg id="Layer_1" xmlns="http://www.w3.org/2000/svg" version="1.1" viewBox="0 0 106.4 106.4">
  <!-- Generator: Adobe Illustrator 29.3.1, SVG Export Plug-In . SVG Version: 2.1.0 Build 151)  -->
  <defs>
    <style>
      .st0 {
        fill: #8c4a43;
      }
    </style>
  </defs>
  <circle class="st0" cx="53.2" cy="53.2" r="48.3"/>
  <g>
    <path d="M54.7,49.8c-.5,0-.9-.2-1.5-.2-3.2,0-5.7,2.5-5.7,5.7s2.5,5.7,5.7,5.7,5.7-2.5,5.7-5.7,0-1-.2-1.5l10.8-10.8-4-4-10.8,10.8h0s0,0,0,0Z"/>
    <path d="M79.5,33.1l-4-4-4.2,4.2c-4.2-3.5-9.4-5.7-15.2-6.3v-5.8h5.7v-5.7h-17.1v5.7h5.7v5.8c-14.4,1.5-25.6,13.6-25.6,28.3s12.8,28.5,28.5,28.5,28.5-12.8,28.5-28.5-2.5-13.1-6.5-18l4.2-4.2h0s-.2,0-.2,0ZM53.2,78.2c-12.5,0-22.8-10.3-22.8-22.8s10.3-22.8,22.8-22.8,22.8,10.3,22.8,22.8-10.3,22.8-22.8,22.8Z"/>
  </g>
</svg>