<?xml version="1.0" encoding="UTF-8"?>
<svg id="Layer_1" xmlns="http://www.w3.org/2000/svg" version="1.1" viewBox="0 0 116 116">
  <!-- Generator: Adobe Illustrator 29.3.1, SVG Export Plug-In . SVG Version: 2.1.0 Build 151)  -->
  <defs>
    <style>
      .st0 {
        fill: #4d7ea8;
      }
    </style>
  </defs>
  <circle class="st0" cx="58.1" cy="58.1" r="53.2"/>
  <g>
    <path d="M26.6,64.7h.5c.4.2.7.3,1.1.6,0,.6-.2,1.1-.6,1.6-.6,1.3-1.4,3.2.2,4.5.2.2.6.3.9.4-.2.3-.4.7-.4,1.2,0,1.4,1.6,1.7,2.2,1.9h0c0,.4,0,1-.1,1.5-.2,1.4-.4,3.2,0,4.8.3,1.1,1,1.9,1.9,2.5,1.1.8,2.5,1.1,3.8,1,4.9-.5,9.7-2.1,14-4.5.2,4.3-.3,7.5-3.1,10.8-.4.5-.4,1.3.1,1.7.2.2.5.3.8.3h28.6c.7,0,1.2-.6,1.2-1.2s-.2-.8-.6-1.1c-1.9-1.2-3.1-3.2-3.4-5.3-1.1-5.8,2.4-14.5,6.2-20-1.5.5-2.9,1.3-4.1,2.4-.1.1-.3.2-.5.4-2.7,5.2-5.1,12.1-4,17.7.3,1.7,1,3.3,2.1,4.7h-23c2.3-3.7,2.5-7.6,2-12.6,0-.7-.7-1.2-1.4-1.1-.2,0-.4.1-.6.2h0s-.2.1-.4.2h-.2c-4.2,2.7-9,4.3-13.9,4.8-.7,0-1.5-.1-2.1-.5-.4-.3-.7-.7-.9-1.2-.2-1.2-.2-2.5,0-3.8.2-1.3.3-2.3,0-3.1-.2-.6-.7-.9-1.4-1,.6-.4.9-1.2.8-1.9-.2-1.1-1.4-1.1-2.2-1.2h-.6c.1-.5.3-.9.6-1.4.6-1.3,1.4-3.1,0-4.4-.6-.5-1.2-.9-2-1.1h-.2c-.1-.1-.2-.1-.3-.2-.2,0-.4-.1-.6-.3h0c.4-1.1,1.1-1.9,1.7-2.7.8-.9,1.5-1.9,2.1-3,.1-.2.2-.4.4-.7,1.1-1.9,2.4-4,1.9-6.2-.7-3.2-.3-6.5,1.1-9.5,4.8-10.4,14.4-13.1,18.3-13.7,1.7-.3,3.5-.4,5.3-.4,3.3,0,6.6.4,9.7,1.4.6.2,1.2.4,1.9.7,1.3.6,2.5,1.2,3.7,2,.7-.5,1.6-1,2.4-1.4-1.6-1.2-3.4-2.2-5.2-2.9-.7-.2-1.4-.6-2.1-.7-3.3-.9-6.8-1.4-10.4-1.4h0c-1.9,0-3.8.2-5.7.4-4.3.7-14.8,3.5-20.1,15.1-1.6,3.4-2.1,7.3-1.3,11,.2,1.3-.7,2.9-1.6,4.5-.1.2-.3.5-.4.7-.6.9-1.2,1.8-1.9,2.6-.9.9-1.6,2.1-2.1,3.2-.4.8-.2,1.7.2,2.4.5.7,1.2,1.2,2,1.4h0Z"/>
    <path d="M73.4,32.8c-6.8-5.2-16.3-5-22.9.4-.4.4-.7,1-.7,1.6v28.6c0,1.1.9,2.1,2.1,2.1s.9-.1,1.2-.4c6-4.2,14-3.8,19.5.9h0s.2.1.2.2h.9s.2-.1.2-.2h0c5.5-4.7,13.6-5.2,19.5-.9.9.7,2.2.4,2.9-.5.2-.4.4-.7.4-1.2v-28.6c0-.6-.2-1.2-.7-1.6-6.6-5.4-16.1-5.6-22.9-.4h.4ZM52.3,62.6v-27.6c5.6-4.6,14.4-4.6,19.9,0v27.6c-6.1-3.9-13.8-3.9-19.9,0h0ZM94.5,62.6c-6.1-3.9-13.8-3.9-19.9,0v-27.6c5.5-4.6,14.3-4.6,19.9,0v27.6Z"/>
    <path d="M18.7,75.8h.3l2.5-.7c.7-.2,1.1-.9.9-1.5-.2-.7-.9-1.1-1.5-.9h0l-2.5.7c-.7.2-1.1.9-.9,1.5.1.6.6.9,1.2.9h0Z"/>
    <path d="M23,81.7c.6.4,1.4.2,1.7-.4l1.3-2.2c.4-.6.2-1.4-.4-1.7s-1.4-.2-1.7.4h0l-1.3,2.2c-.4.6-.2,1.3.4,1.7Z"/>
    <path d="M19.1,68l2.3,1.2c.6.3,1.4.1,1.7-.5s.1-1.4-.5-1.7h0l-2.3-1.2c-.6-.3-1.4-.1-1.7.5-.4.6-.1,1.3.5,1.7Z"/>
    <path d="M63.3,40.9h0c0-.2,0-.1,0-.1h0c0-.1,0-.2-.1-.2h-1s0,0-.1,0h-.1c-.1,0,0,0,0,0,0,0-.1.1-.2.2h0v.2h0l-4.4,9.9c-.3.6,0,1.4.6,1.6.6.3,1.4,0,1.6-.6h0l1.1-2.4h4.5l1.1,2.4c.2.6,1,.9,1.6.6s.9-1,.6-1.6h0l-4.4-10h-.7ZM61.1,47l1.1-2.5,1.1,2.5h-2.2Z"/>
    <path d="M88.8,40.9h-8c-.7,0-1.2.6-1.2,1.2s.6,1.2,1.2,1.2h4.5l-5.3,5.3-.2.2h0c0,.1,0,.3-.1.4h0v.6h0c0,.1,0,.3.1.4h0c0,.2.2.4.4.5h0c0,.1.2.1.2.2h7.8c.7,0,1.2-.6,1.2-1.2s-.6-1.2-1.2-1.2h-4.5l5.3-5.3c0,0,.1-.1.2-.2,0,0,0,0,0-.1,0,0,0-.2.1-.2,0,0,0,0,0-.1,0-.2,0-.3,0-.5,0,0,0,0,0-.1,0,0,0-.2-.1-.2,0,0,0,0,0-.1,0-.1-.2-.2-.4-.4h0c0-.1-.1-.1-.1-.1h0Z"/>
  </g>
</svg>