<?xml version="1.0" encoding="UTF-8"?>
<svg id="Layer_3" data-name="Layer 3" xmlns="http://www.w3.org/2000/svg" viewBox="0 0 116 116">
  <g id="Layer_5" data-name="Layer 5">
    <circle cx="58" cy="58.13" r="53.24" fill="#bca4db"/>
  </g>
  <g>
    <path d="M96.52,63.98v-11.74c-3.31-.44-6.61-.88-9.92-1.32-.71-2.83-1.82-5.5-3.28-7.94l6.07-7.96-8.3-8.3c-2.65,2.02-5.29,4.05-7.94,6.07-2.44-1.46-5.11-2.59-7.94-3.3l-1.33-9.91h-11.74c-.44,3.3-.88,6.6-1.32,9.9-2.84.71-5.51,1.83-7.95,3.3-2.65-2.02-5.29-4.05-7.94-6.07l-8.3,8.3,6.07,7.96c-1.46,2.44-2.58,5.11-3.28,7.94-3.31.44-6.61.88-9.92,1.32v11.74l9.93,1.34c.71,2.82,1.83,5.49,3.29,7.92-2.03,2.65-4.06,5.31-6.09,7.96l8.3,8.3,7.98-6.09c2.43,1.45,5.09,2.57,7.91,3.28.44,3.31.88,6.63,1.33,9.94h11.74l1.34-9.94c2.82-.71,5.47-1.82,7.9-3.27l7.98,6.09,8.3-8.3c-2.03-2.65-4.06-5.31-6.09-7.96,1.46-2.43,2.58-5.09,3.29-7.92l9.93-1.34Z" fill="none" stroke="#000" stroke-miterlimit="10" stroke-width="2.5"/>
    <circle cx="58" cy="58.69" r="16.75" fill="none" stroke="#000" stroke-miterlimit="10" stroke-width="2.5"/>
  </g>
</svg>