<?xml version="1.0" encoding="UTF-8"?>
<svg id="Layer_1" xmlns="http://www.w3.org/2000/svg" version="1.1" viewBox="0 0 116 116">
  <!-- Generator: Adobe Illustrator 29.3.1, SVG Export Plug-In . SVG Version: 2.1.0 Build 151)  -->
  <defs>
    <style>
      .st0 {
        fill: #815d99;
      }
    </style>
  </defs>
  <circle class="st0" cx="58" cy="58.1" r="53.2"/>
  <g>
    <path d="M76.3,47.9c4.2,1.2,8.6,0,11.7-3,3.1-3.1,4.2-7.7,2.9-11.9-.1-.4-.5-.7-.9-.8-.4-.1-.8,0-1.1.3l-4.7,4.7-4.5-.7-.7-4.5,4.8-4.8c.3-.3.4-.7.3-1.1,0-.4-.4-.7-.8-.9-4.3-1.5-9-.4-12.3,2.8-3.1,3.1-4.2,7.5-3,11.7l-28.1,28.1c-4.3-1.3-9-.2-12.2,3-3.2,3.2-4.3,7.9-3,12.2.1.4.4.7.9.8.4.1.8,0,1.1-.3l4.8-4.8,4.7.7.7,4.7-5,5c-.3.3-.4.7-.3,1.1,0,.4.4.7.8.9,1.3.5,2.7.7,4,.7,3.2,0,6.2-1.2,8.6-3.5,3.2-3.2,4.3-7.9,3-12.2l28.1-28.1Z"/>
    <path d="M30.2,64.9c0,.3.3.6.6.8.2,0,.4.1.6.1s.3,0,.4,0c1.9-.7,4-.9,6-.7.4,0,.8-.1,1-.4.3-.3.3-.7.2-1.1-1.9-6.8,0-14.2,5-19.3,5.2-5.2,12.8-7.1,19.8-4.9.4.1.8,0,1.1-.2.3-.3.5-.7.4-1.1-.2-2,0-4.1.6-6.1.1-.3,0-.7,0-1-.2-.3-.4-.5-.8-.6-.7-.2-1.4-.3-2.1-.5l-.7-5.6c0-.6-.6-1.1-1.2-1.1h-6.5c-.6,0-1.1.5-1.2,1.1l-.7,5.6c-1.5.3-3,.7-4.5,1.2l-3.4-4.6c-.4-.5-1-.6-1.6-.3l-5.7,3.3c-.5.3-.7,1-.5,1.5l2.3,5.2c-1.2,1-2.3,2.1-3.3,3.3l-5.3-2.3c-.6-.2-1.2,0-1.5.5l-3.3,5.7c-.3.5-.2,1.2.3,1.6l4.6,3.4c-.5,1.5-.9,3-1.2,4.5l-5.7.7c-.6,0-1.1.6-1.1,1.2v6.6c0,.6.4,1.1,1,1.2l5.7.7c0,.5.2,1.1.3,1.6Z"/>
    <path d="M91.8,53.7l-5.6-.7c-.1-.7-.3-1.4-.5-2.1,0-.3-.3-.6-.6-.7-.3-.2-.6-.2-.9,0-2,.7-4,.9-6.1.6-.4,0-.8.1-1.1.4s-.3.7-.2,1.1c2.2,7,.3,14.6-4.9,19.8-5.1,5-12.4,7-19.3,5-.4-.1-.8,0-1.1.2-.3.3-.5.6-.4,1,.2,2,0,4-.7,6-.1.3,0,.7,0,1,.2.3.4.5.8.6.5.1,1.1.2,1.6.3l.7,5.8c0,.6.6,1.1,1.2,1.1h6.6c.6,0,1.1-.5,1.2-1.1l.7-5.7c1.5-.3,3-.7,4.5-1.2l3.4,4.6c.4.5,1,.6,1.6.3l5.7-3.3c.5-.3.7-1,.5-1.5l-2.3-5.3c1.2-1,2.3-2.1,3.3-3.3l5.3,2.3c.6.2,1.2,0,1.5-.5l3.3-5.7c.3-.5.2-1.2-.3-1.6l-4.6-3.4c.5-1.5.9-3,1.2-4.5l5.7-.7c.6,0,1.1-.6,1.1-1.2v-6.5c0-.6-.5-1.1-1.1-1.2Z"/>
  </g>
</svg>